<svg width="96" height="96" viewBox="0 0 96 96" fill="none" xmlns="http://www.w3.org/2000/svg">
<path d="M78.6192 44.4377C78.9594 44.4377 79.4712 44.5889 79.8123 44.5889C84.2473 44.5889 88 41.2637 88 37.334C88 33.4043 84.4179 30.0792 79.8123 30.0792C75.3773 30.0792 71.6247 33.4043 71.6247 37.334C71.6247 38.6943 72.1364 40.0546 72.8196 41.1126C72.6482 41.2637 72.4776 41.4149 72.4776 41.566L67.0192 48.3675C66.8054 48.5741 66.6841 48.8429 66.678 49.1232C64.9723 48.6698 63.0959 48.3675 61.2196 48.3675C57.3971 48.3682 53.6596 49.367 50.4742 51.2392L36.3155 32.6486C36.3155 32.4974 36.145 32.4974 35.9744 32.3463C38.0213 30.2303 39.2153 27.6609 39.2153 24.638C39.2153 18.1389 33.4158 13 26.2516 13C19.0874 13 13.1172 17.9877 13.1172 24.3357C13.1172 30.6837 18.9168 35.9737 26.081 35.9737C27.4456 35.9737 28.6396 35.8226 30.0042 35.5203C30.0042 35.6715 30.1748 35.8226 30.1748 35.9737L44.5032 54.7155C44.6737 55.0178 44.8443 55.1689 45.1855 55.32C42.7974 58.3429 41.2631 61.9703 41.2631 65.9001V66.2023H40.5799L20.2814 69.8298C20.1108 69.8298 19.7706 69.9809 19.5991 69.9809C18.4051 68.6206 16.5288 67.7138 14.4818 67.7138C10.8998 67.7138 8 70.2832 8 73.6083C8 76.7824 10.9006 79.5029 14.4818 79.5029C17.0405 79.5029 19.4286 78.1426 20.452 76.0266H21.6469L41.9446 72.5504C42.1151 72.5504 42.4563 72.3992 42.6268 72.3992C45.5275 79.0495 52.6908 83.8861 61.049 83.8861C71.9659 83.8861 80.8358 75.8755 80.8358 66.0512C80.8358 60.1566 77.7654 55.0178 72.8187 51.8438L78.1066 45.1935C78.4477 44.8912 78.6192 44.74 78.6192 44.4377ZM60.0256 63.0283C60.3667 63.4818 60.8785 63.9352 61.7313 64.3886C63.6077 65.2955 65.1428 66.0512 65.9957 66.9581C66.8486 67.8649 67.3603 69.0741 67.3603 70.7366C67.3603 72.2481 66.8495 73.6083 65.9957 74.5152C65.142 75.4221 63.7791 76.0266 62.2431 76.1778V78.8984H60.0264V76.1778C58.3207 76.0266 57.1258 75.4221 55.9318 74.3641C54.9083 73.3061 54.3966 71.7946 54.3966 69.6786H58.661C58.661 70.8878 58.8316 71.7946 59.3433 72.3992C59.855 73.0038 60.3667 73.1549 61.049 73.1549C61.7313 73.1549 62.2439 73.0038 62.5842 72.5504C62.9254 72.0972 63.0959 71.4926 63.0959 70.7366C63.0959 69.9807 62.9256 69.3761 62.585 68.9229C62.1402 68.3607 61.557 67.8956 60.8793 67.5626C59.0021 66.8069 57.4678 65.9001 56.614 64.9932C55.7603 64.0863 55.2494 62.8772 55.2494 61.2146C55.2494 59.7032 55.7612 58.4941 56.614 57.4361C57.4669 56.3781 58.8316 55.9246 60.3667 55.6223V52.7506H62.5842V55.6223C64.1194 55.9246 65.3134 56.5292 66.1663 57.5872C67.0192 58.6452 67.5309 60.1566 67.5309 61.8192H63.2665C63.2665 60.7612 63.0959 59.8543 62.7556 59.4009C62.4136 58.7963 61.9019 58.4941 61.3901 58.4941C60.8784 58.4941 60.3667 58.7963 60.0256 59.2498C59.685 59.7035 59.5147 60.308 59.5147 61.0635C59.5147 61.9703 59.6844 62.5749 60.0256 63.0283Z" fill="currentColor"/>
</svg>
