<svg width="96" height="96" viewBox="0 0 96 96" fill="none" xmlns="http://www.w3.org/2000/svg">
<g clip-path="url(#clip0_105_10321)">
<path d="M44 40C44 37.8 45.8 36 48 36C50.2 36 52 37.8 52 40V68H44V40ZM80 52C77.8 52 76 53.8 76 56V76H20V20H40C42.2 20 44 18.2 44 16C44 13.8 42.2 12 40 12H20C15.6 12 12 15.6 12 20V76C12 80.4 15.6 84 20 84H76C80.4 84 84 80.4 84 76V56C84 53.8 82.2 52 80 52ZM84 20H76V12C76 9.8 74.2 8 72 8C69.8 8 68 9.8 68 12V20H60C57.8 20 56 21.8 56 24C56 26.2 57.8 28 60 28H68V36C68 38.2 69.8 40 72 40C74.2 40 76 38.2 76 36V28H84C86.2 28 88 26.2 88 24C88 21.8 86.2 20 84 20ZM64 52C61.8 52 60 53.8 60 56V68H68V56C68 53.8 66.2 52 64 52ZM28 48V68H36V48C36 45.8 34.2 44 32 44C29.8 44 28 45.8 28 48Z" fill="black"/>
</g>
<defs>
<clipPath id="clip0_105_10321">
<rect width="96" height="96" fill="white"/>
</clipPath>
</defs>
</svg>
