<svg width="96" height="96" viewBox="0 0 96 96" fill="none" xmlns="http://www.w3.org/2000/svg">
<g clip-path="url(#clip0_105_10316)">
<path d="M47.2 43.6C38.12 41.24 35.2 38.8 35.2 35C35.2 30.64 39.24 27.6 46 27.6C51.68 27.6 54.52 29.76 55.56 33.2C56.04 34.8 57.36 36 59.04 36H60.24C62.88 36 64.76 33.4 63.84 30.92C62.16 26.2 58.24 22.28 52 20.76V18C52 14.68 49.32 12 46 12C42.68 12 40 14.68 40 18V20.64C32.24 22.32 26 27.36 26 35.08C26 44.32 33.64 48.92 44.8 51.6C54.8 54 56.8 57.52 56.8 61.24C56.8 64 54.84 68.4 46 68.4C39.4 68.4 36 66.04 34.68 62.68C34.08 61.12 32.72 60 31.08 60H29.96C27.28 60 25.4 62.72 26.4 65.2C28.68 70.76 34 74.04 40 75.32V78C40 81.32 42.68 84 46 84C49.32 84 52 81.32 52 78V75.4C59.8 73.92 66 69.4 66 61.2C66 49.84 56.28 45.96 47.2 43.6Z" fill="currentColor"/>
</g>
<defs>
<clipPath id="clip0_105_10316">
<rect width="96" height="96" fill="white"/>
</clipPath>
</defs>
</svg>
