<svg width="96" height="96" viewBox="0 0 96 96" fill="none" xmlns="http://www.w3.org/2000/svg">
<path d="M30.8 65.2C31.5333 65.9333 32.4667 66.3 33.6 66.3C34.7333 66.3 35.6667 65.9333 36.4 65.2L48 53.6L59.7 65.3C60.4333 66.0333 61.3507 66.3827 62.452 66.348C63.5507 66.316 64.4667 65.9333 65.2 65.2C65.9333 64.4667 66.3 63.5333 66.3 62.4C66.3 61.2667 65.9333 60.3333 65.2 59.6L53.6 48L65.3 36.3C66.0333 35.5667 66.3827 34.6493 66.348 33.548C66.316 32.4493 65.9333 31.5333 65.2 30.8C64.4667 30.0667 63.5333 29.7 62.4 29.7C61.2667 29.7 60.3333 30.0667 59.6 30.8L48 42.4L36.3 30.7C35.5667 29.9667 34.6507 29.616 33.552 29.648C32.4507 29.6827 31.5333 30.0667 30.8 30.8C30.0667 31.5333 29.7 32.4667 29.7 33.6C29.7 34.7333 30.0667 35.6667 30.8 36.4L42.4 48L30.7 59.7C29.9667 60.4333 29.6173 61.3493 29.652 62.448C29.684 63.5493 30.0667 64.4667 30.8 65.2ZM48 88C42.4667 88 37.2667 86.9493 32.4 84.848C27.5333 82.7493 23.3 79.9 19.7 76.3C16.1 72.7 13.2507 68.4667 11.152 63.6C9.05067 58.7333 8 53.5333 8 48C8 42.4667 9.05067 37.2667 11.152 32.4C13.2507 27.5333 16.1 23.3 19.7 19.7C23.3 16.1 27.5333 13.2493 32.4 11.148C37.2667 9.04933 42.4667 8 48 8C53.5333 8 58.7333 9.04933 63.6 11.148C68.4667 13.2493 72.7 16.1 76.3 19.7C79.9 23.3 82.7493 27.5333 84.848 32.4C86.9493 37.2667 88 42.4667 88 48C88 53.5333 86.9493 58.7333 84.848 63.6C82.7493 68.4667 79.9 72.7 76.3 76.3C72.7 79.9 68.4667 82.7493 63.6 84.848C58.7333 86.9493 53.5333 88 48 88ZM48 80C56.8667 80 64.4173 76.884 70.652 70.652C76.884 64.4173 80 56.8667 80 48C80 39.1333 76.884 31.5827 70.652 25.348C64.4173 19.116 56.8667 16 48 16C39.1333 16 31.584 19.116 25.352 25.348C19.1173 31.5827 16 39.1333 16 48C16 56.8667 19.1173 64.4173 25.352 70.652C31.584 76.884 39.1333 80 48 80Z" fill="currentColor"/>
</svg>
