<svg width="80" height="80" viewBox="0 0 80 80" fill="none" xmlns="http://www.w3.org/2000/svg">
<circle cx="40" cy="40" r="40" fill="#C200FB"/>
<g clip-path="url(#clip0_439_26925)">
<path d="M59.801 25.9961H52.001V19.9961C52.001 18.8961 51.101 17.9961 50.001 17.9961C48.901 17.9961 48.001 18.8961 48.001 19.9961V25.9961H40.201C39.021 25.9961 38.101 27.0161 38.201 28.1961L38.441 30.6161C45.801 32.3161 52.001 37.5361 52.001 45.9961L52.041 61.9961H55.441C57.121 61.9961 58.501 60.6961 58.701 59.0561L61.781 28.1961C61.901 27.0161 60.981 25.9961 59.801 25.9961ZM46.001 57.9961H20.001C18.901 57.9961 18.001 58.8961 18.001 59.9961C18.001 61.0961 18.901 61.9961 20.001 61.9961H46.001C47.101 61.9961 48.001 61.0961 48.001 59.9961C48.001 58.8961 47.101 57.9961 46.001 57.9961ZM20.201 45.9961H45.801C47.041 45.9961 48.021 44.8761 47.781 43.6761C46.481 37.2161 39.741 33.9761 33.001 33.9761C26.261 33.9761 19.541 37.2161 18.221 43.6761C17.981 44.8761 18.981 45.9961 20.201 45.9961ZM46.001 49.9961H20.001C18.901 49.9961 18.001 50.8961 18.001 51.9961C18.001 53.0961 18.901 53.9961 20.001 53.9961H46.001C47.101 53.9961 48.001 53.0961 48.001 51.9961C48.001 50.8961 47.101 49.9961 46.001 49.9961Z" fill="white"/>
</g>
<defs>
<clipPath id="clip0_439_26925">
<rect width="48" height="48" fill="white" transform="translate(16.001 15.9961)"/>
</clipPath>
</defs>
</svg>
