<svg width="80" height="80" viewBox="0 0 80 80" fill="none" xmlns="http://www.w3.org/2000/svg">
<circle cx="40" cy="40" r="40" fill="#FF006E"/>
<g clip-path="url(#clip0_439_27065)">
<path d="M55.001 22.9961L52.001 19.9961L49.001 22.9961L46.001 19.9961L43.001 22.9961L40.001 19.9961L37.001 22.9961L34.001 19.9961L31.001 22.9961L28.001 19.9961V47.9961H22.001V53.9961C22.001 57.3161 24.681 59.9961 28.001 59.9961H52.001C55.321 59.9961 58.001 57.3161 58.001 53.9961V19.9961L55.001 22.9961ZM54.001 53.9961C54.001 55.0961 53.101 55.9961 52.001 55.9961C50.901 55.9961 50.001 55.0961 50.001 53.9961V47.9961H32.001V25.9961H54.001V53.9961Z" fill="white"/>
<path d="M46.001 29.9961H34.001V33.9961H46.001V29.9961Z" fill="white"/>
<path d="M52.001 29.9961H48.001V33.9961H52.001V29.9961Z" fill="white"/>
<path d="M46.001 35.9961H34.001V39.9961H46.001V35.9961Z" fill="white"/>
<path d="M52.001 35.9961H48.001V39.9961H52.001V35.9961Z" fill="white"/>
</g>
<defs>
<clipPath id="clip0_439_27065">
<rect width="48" height="48" fill="white" transform="translate(16.001 15.9961)"/>
</clipPath>
</defs>
</svg>
