<svg width="80" height="80" viewBox="0 0 80 80" fill="none" xmlns="http://www.w3.org/2000/svg">
<circle cx="40" cy="40" r="40" fill="#5F021F"/>
<g clip-path="url(#clip0_439_26878)">
<path d="M41.781 38.1961C38.221 37.0161 36.501 36.2761 36.501 34.3961C36.501 32.3561 38.721 31.6161 40.121 31.6161C42.741 31.6161 43.701 33.5961 43.921 34.2961L47.081 32.9561C46.781 32.0561 45.441 29.1161 42.001 28.4761V25.9961H38.001V28.5161C33.041 29.6361 33.021 34.2361 33.021 34.4361C33.021 38.9761 37.521 40.2561 39.721 41.0561C42.881 42.1761 44.281 43.1961 44.281 45.1161C44.281 47.3761 42.181 48.3361 40.321 48.3361C36.681 48.3361 35.641 44.5961 35.521 44.1561L32.201 45.4961C33.461 49.8761 36.761 51.0561 38.001 51.4161V53.9961H42.001V51.5161C42.801 51.3361 47.801 50.3361 47.801 45.0761C47.801 42.2961 46.581 39.8561 41.781 38.1961ZM22.001 57.9961H18.001V45.9961H30.001V49.9961H25.041C28.261 54.8161 33.761 57.9961 40.001 57.9961C49.941 57.9961 58.001 49.9361 58.001 39.9961H62.001C62.001 52.1561 52.161 61.9961 40.001 61.9961C32.561 61.9961 25.981 58.2961 22.001 52.6561V57.9961ZM18.001 39.9961C18.001 27.8361 27.841 17.9961 40.001 17.9961C47.441 17.9961 54.021 21.6961 58.001 27.3361V21.9961H62.001V33.9961H50.001V29.9961H54.961C51.741 25.1761 46.241 21.9961 40.001 21.9961C30.061 21.9961 22.001 30.0561 22.001 39.9961H18.001Z" fill="white"/>
</g>
<defs>
<clipPath id="clip0_439_26878">
<rect width="48" height="48" fill="white" transform="translate(16.001 15.9961)"/>
</clipPath>
</defs>
</svg>
