<svg width="80" height="80" viewBox="0 0 80 80" fill="none" xmlns="http://www.w3.org/2000/svg">
<circle cx="40" cy="40" r="40" fill="#7B429E"/>
<g clip-path="url(#clip0_439_27100)">
<path d="M55.661 30.9964L51.121 26.4564C51.261 25.6164 51.481 24.8364 51.761 24.1564C51.981 23.6364 52.061 23.0364 51.941 22.4164C51.681 20.9764 50.281 19.9764 48.801 19.9964C45.621 20.0564 42.801 21.6164 41.001 23.9964H31.001C24.921 23.9964 20.001 28.9164 20.001 34.9964C20.001 39.4964 22.741 49.9564 24.161 55.0764C24.641 56.7964 26.221 57.9964 28.021 57.9964H32.001C34.201 57.9964 36.001 56.1964 36.001 53.9964H40.001C40.001 56.1964 41.801 57.9964 44.001 57.9964H48.021C49.781 57.9964 51.341 56.8364 51.861 55.1364L54.361 46.8164L58.641 45.3764C59.461 45.0964 60.001 44.3364 60.001 43.4764V32.9964C60.001 31.8964 59.101 30.9964 58.001 30.9964H55.661ZM40.001 33.9964H34.001C32.901 33.9964 32.001 33.0964 32.001 31.9964C32.001 30.8964 32.901 29.9964 34.001 29.9964H40.001C41.101 29.9964 42.001 30.8964 42.001 31.9964C42.001 33.0964 41.101 33.9964 40.001 33.9964ZM48.001 37.9964C46.901 37.9964 46.001 37.0964 46.001 35.9964C46.001 34.8964 46.901 33.9964 48.001 33.9964C49.101 33.9964 50.001 34.8964 50.001 35.9964C50.001 37.0964 49.101 37.9964 48.001 37.9964Z" fill="white"/>
</g>
<defs>
<clipPath id="clip0_439_27100">
<rect width="48" height="48" fill="white" transform="translate(16.001 15.9961)"/>
</clipPath>
</defs>
</svg>
