<svg width="80" height="80" viewBox="0 0 80 80" fill="none" xmlns="http://www.w3.org/2000/svg">
<circle cx="40" cy="40" r="40" fill="#8338EC"/>
<g clip-path="url(#clip0_439_26863)">
<path d="M56.001 23.9961H24.001C21.781 23.9961 20.021 25.7761 20.021 27.9961L20.001 51.9961C20.001 54.2161 21.781 55.9961 24.001 55.9961H56.001C58.221 55.9961 60.001 54.2161 60.001 51.9961V27.9961C60.001 25.7761 58.221 23.9961 56.001 23.9961ZM54.001 51.9961H26.001C24.901 51.9961 24.001 51.0961 24.001 49.9961V39.9961H56.001V49.9961C56.001 51.0961 55.101 51.9961 54.001 51.9961ZM56.001 31.9961H24.001V27.9961H56.001V31.9961Z" fill="white"/>
</g>
<defs>
<clipPath id="clip0_439_26863">
<rect width="48" height="48" fill="white" transform="translate(16.001 15.9961)"/>
</clipPath>
</defs>
</svg>
