<svg width="80" height="80" viewBox="0 0 80 80" fill="none" xmlns="http://www.w3.org/2000/svg">
<circle cx="40" cy="40" r="40" fill="#00A305"/>
<g clip-path="url(#clip0_439_26895)">
<path d="M24.001 47.9961C24.001 49.7561 24.781 51.3361 26.001 52.4361V54.9961C26.001 56.6561 27.341 57.9961 29.001 57.9961C30.661 57.9961 32.001 56.6561 32.001 54.9961V53.9961H48.001V54.9961C48.001 56.6361 49.341 57.9961 51.001 57.9961C52.641 57.9961 54.001 56.6561 54.001 54.9961V52.4361C55.221 51.3361 56.001 49.7561 56.001 47.9961V27.9961C56.001 20.9961 48.841 19.9961 40.001 19.9961C31.161 19.9961 24.001 20.9961 24.001 27.9961V47.9961ZM31.001 49.9961C29.341 49.9961 28.001 48.6561 28.001 46.9961C28.001 45.3361 29.341 43.9961 31.001 43.9961C32.661 43.9961 34.001 45.3361 34.001 46.9961C34.001 48.6561 32.661 49.9961 31.001 49.9961ZM49.001 49.9961C47.341 49.9961 46.001 48.6561 46.001 46.9961C46.001 45.3361 47.341 43.9961 49.001 43.9961C50.661 43.9961 52.001 45.3361 52.001 46.9961C52.001 48.6561 50.661 49.9961 49.001 49.9961ZM52.001 37.9961H28.001V27.9961H52.001V37.9961Z" fill="white"/>
</g>
<defs>
<clipPath id="clip0_439_26895">
<rect width="48" height="48" fill="white" transform="translate(16.001 15.9961)"/>
</clipPath>
</defs>
</svg>
