<svg width="80" height="80" viewBox="0 0 80 80" fill="none" xmlns="http://www.w3.org/2000/svg">
<circle cx="40" cy="40" r="40" fill="#775144"/>
<g clip-path="url(#clip0_439_26910)">
<path d="M53.841 26.0161C53.441 24.8361 52.321 23.9961 51.001 23.9961H29.001C27.681 23.9961 26.581 24.8361 26.161 26.0161L22.221 37.3561C22.081 37.7761 22.001 38.2161 22.001 38.6761V52.9961C22.001 54.6561 23.341 55.9961 25.001 55.9961C26.661 55.9961 28.001 54.6561 28.001 52.9961V51.9961H52.001V52.9961C52.001 54.6361 53.341 55.9961 55.001 55.9961C56.641 55.9961 58.001 54.6561 58.001 52.9961V38.6761C58.001 38.2361 57.921 37.7761 57.781 37.3561L53.841 26.0161ZM29.001 45.9961C27.341 45.9961 26.001 44.6561 26.001 42.9961C26.001 41.3361 27.341 39.9961 29.001 39.9961C30.661 39.9961 32.001 41.3361 32.001 42.9961C32.001 44.6561 30.661 45.9961 29.001 45.9961ZM51.001 45.9961C49.341 45.9961 48.001 44.6561 48.001 42.9961C48.001 41.3361 49.341 39.9961 51.001 39.9961C52.661 39.9961 54.001 41.3361 54.001 42.9961C54.001 44.6561 52.661 45.9961 51.001 45.9961ZM26.001 35.9961L28.541 28.3561C28.821 27.5561 29.581 26.9961 30.441 26.9961H49.561C50.421 26.9961 51.181 27.5561 51.461 28.3561L54.001 35.9961H26.001Z" fill="white"/>
</g>
<defs>
<clipPath id="clip0_439_26910">
<rect width="48" height="48" fill="white" transform="translate(16.001 15.9961)"/>
</clipPath>
</defs>
</svg>
