<svg width="80" height="80" viewBox="0 0 80 80" fill="none" xmlns="http://www.w3.org/2000/svg">
<circle cx="40" cy="40" r="40" fill="#585563"/>
<path d="M29.7007 50.2945L24.7007 47.5445C24.334 47.3445 24.1257 47.0529 24.0757 46.6695C24.0257 46.2862 24.134 45.9612 24.4007 45.6945L25.0007 45.0945C25.134 44.9612 25.2923 44.8695 25.4757 44.8195C25.659 44.7695 25.834 44.7612 26.0007 44.7945L30.4007 45.3945L38.2007 37.5945L24.6007 30.1945C24.1007 29.9279 23.809 29.5112 23.7257 28.9445C23.6423 28.3779 23.8007 27.8945 24.2007 27.4945L24.7007 26.9945C24.934 26.7612 25.1923 26.6112 25.4757 26.5445C25.759 26.4779 26.0507 26.4779 26.3507 26.5445L44.5007 31.1945L52.3007 23.4945C52.8673 22.9279 53.5673 22.6445 54.4007 22.6445C55.234 22.6445 55.934 22.9279 56.5007 23.4945C57.0673 24.0612 57.3507 24.7612 57.3507 25.5945C57.3507 26.4279 57.0673 27.1279 56.5007 27.6945L48.8007 35.4945L53.4507 53.5445C53.5173 53.8779 53.509 54.2029 53.4257 54.5195C53.3423 54.8362 53.184 55.1112 52.9507 55.3445L52.7007 55.5945C52.234 56.0612 51.6923 56.2445 51.0757 56.1445C50.459 56.0445 50.0007 55.7112 49.7007 55.1445L42.4007 41.7945L34.6007 49.5945L35.2007 53.8945C35.234 54.1279 35.2173 54.3445 35.1507 54.5445C35.084 54.7445 34.9673 54.9279 34.8007 55.0945L34.5507 55.3445C34.2173 55.6779 33.8173 55.8195 33.3507 55.7695C32.884 55.7195 32.534 55.4779 32.3007 55.0445L29.7007 50.2945Z" fill="white"/>
</svg>
