<svg width="80" height="80" viewBox="0 0 80 80" fill="none" xmlns="http://www.w3.org/2000/svg">
<circle cx="40" cy="40" r="40" fill="#585563"/>
<g clip-path="url(#clip0_439_27016)">
<path d="M55.541 30.4561L55.561 30.4361L49.181 24.0561C48.601 23.4761 47.641 23.4761 47.061 24.0561C46.481 24.6361 46.481 25.5961 47.061 26.1761L50.221 29.3361C48.121 30.1361 46.701 32.2761 47.061 34.7561C47.381 36.9561 49.261 38.7361 51.461 38.9761C52.401 39.0761 53.221 38.9161 54.001 38.5761V52.9961C54.001 54.0961 53.101 54.9961 52.001 54.9961C50.901 54.9961 50.001 54.0961 50.001 52.9961V43.9961C50.001 41.7961 48.201 39.9961 46.001 39.9961H44.001V25.9961C44.001 23.7961 42.201 21.9961 40.001 21.9961H28.001C25.801 21.9961 24.001 23.7961 24.001 25.9961V55.9961C24.001 57.0961 24.901 57.9961 26.001 57.9961H42.001C43.101 57.9961 44.001 57.0961 44.001 55.9961V42.9961H47.001V52.7161C47.001 55.3361 48.881 57.7161 51.481 57.9761C54.481 58.2761 57.001 55.9361 57.001 52.9961V33.9961C57.001 32.6161 56.441 31.3561 55.541 30.4561ZM40.001 35.9961H28.001V27.9961C28.001 26.8961 28.901 25.9961 30.001 25.9961H38.001C39.101 25.9961 40.001 26.8961 40.001 27.9961V35.9961ZM52.001 35.9961C50.901 35.9961 50.001 35.0961 50.001 33.9961C50.001 32.8961 50.901 31.9961 52.001 31.9961C53.101 31.9961 54.001 32.8961 54.001 33.9961C54.001 35.0961 53.101 35.9961 52.001 35.9961Z" fill="white"/>
</g>
<defs>
<clipPath id="clip0_439_27016">
<rect width="48" height="48" fill="white" transform="translate(16.001 15.9961)"/>
</clipPath>
</defs>
</svg>
