<svg width="80" height="80" viewBox="0 0 80 80" fill="none" xmlns="http://www.w3.org/2000/svg">
<circle cx="40" cy="40" r="40" fill="#5F021F"/>
<g clip-path="url(#clip0_439_27031)">
<path d="M52.001 23.9961V25.9961H48.001V23.9961C48.001 22.8961 47.101 21.9961 46.001 21.9961H34.001C32.901 21.9961 32.001 22.8961 32.001 23.9961V25.9961H28.001V23.9961C28.001 22.8961 27.101 21.9961 26.001 21.9961C24.901 21.9961 24.001 22.8961 24.001 23.9961V55.9961C24.001 57.0961 24.901 57.9961 26.001 57.9961C27.101 57.9961 28.001 57.0961 28.001 55.9961V53.9961H32.001V55.9961C32.001 57.0961 32.901 57.9961 34.001 57.9961H46.001C47.101 57.9961 48.001 57.0961 48.001 55.9961V53.9961H52.001V55.9961C52.001 57.0961 52.901 57.9961 54.001 57.9961C55.101 57.9961 56.001 57.0961 56.001 55.9961V23.9961C56.001 22.8961 55.101 21.9961 54.001 21.9961C52.901 21.9961 52.001 22.8961 52.001 23.9961ZM32.001 49.9961H28.001V45.9961H32.001V49.9961ZM32.001 41.9961H28.001V37.9961H32.001V41.9961ZM32.001 33.9961H28.001V29.9961H32.001V33.9961ZM52.001 49.9961H48.001V45.9961H52.001V49.9961ZM52.001 41.9961H48.001V37.9961H52.001V41.9961ZM52.001 33.9961H48.001V29.9961H52.001V33.9961Z" fill="white"/>
</g>
<defs>
<clipPath id="clip0_439_27031">
<rect width="48" height="48" fill="white" transform="translate(16.001 15.9961)"/>
</clipPath>
</defs>
</svg>
