<svg width="80" height="80" viewBox="0 0 80 80" fill="none" xmlns="http://www.w3.org/2000/svg">
<circle cx="40" cy="40" r="40" fill="#2A2A72"/>
<path d="M54.0012 34.5975V25.9975C54.0012 24.8975 53.1012 23.9975 52.0012 23.9975H50.0012C48.9012 23.9975 48.0012 24.8975 48.0012 25.9975V29.1975L41.3412 23.1975C40.5812 22.5175 39.4212 22.5175 38.6612 23.1975L21.9412 38.2575C21.2612 38.8575 21.6812 39.9975 22.6012 39.9975H26.0012V53.9975C26.0012 55.0975 26.9012 55.9975 28.0012 55.9975H34.0012C35.1012 55.9975 36.0012 55.0975 36.0012 53.9975V43.9975H44.0012V53.9975C44.0012 55.0975 44.9012 55.9975 46.0012 55.9975H52.0012C53.1012 55.9975 54.0012 55.0975 54.0012 53.9975V39.9975H57.4012C58.3212 39.9975 58.7612 38.8575 58.0612 38.2575L54.0012 34.5975ZM36.0012 35.9975C36.0012 33.7975 37.8012 31.9975 40.0012 31.9975C42.2012 31.9975 44.0012 33.7975 44.0012 35.9975H36.0012Z" fill="white"/>
</svg>
