<svg width="80" height="80" viewBox="0 0 80 80" fill="none" xmlns="http://www.w3.org/2000/svg">
<circle cx="40" cy="40" r="40" fill="#04828B"/>
<g clip-path="url(#clip0_439_27173)">
<path d="M52.001 27.9961H48.001C48.001 23.5761 44.421 19.9961 40.001 19.9961C35.581 19.9961 32.001 23.5761 32.001 27.9961H28.001C25.801 27.9961 24.001 29.7961 24.001 31.9961V55.9961C24.001 58.1961 25.801 59.9961 28.001 59.9961H52.001C54.201 59.9961 56.001 58.1961 56.001 55.9961V31.9961C56.001 29.7961 54.201 27.9961 52.001 27.9961ZM40.001 23.9961C42.201 23.9961 44.001 25.7961 44.001 27.9961H36.001C36.001 25.7961 37.801 23.9961 40.001 23.9961ZM52.001 55.9961H28.001V31.9961H32.001V35.9961C32.001 37.0961 32.901 37.9961 34.001 37.9961C35.101 37.9961 36.001 37.0961 36.001 35.9961V31.9961H44.001V35.9961C44.001 37.0961 44.901 37.9961 46.001 37.9961C47.101 37.9961 48.001 37.0961 48.001 35.9961V31.9961H52.001V55.9961Z" fill="white"/>
</g>
<defs>
<clipPath id="clip0_439_27173">
<rect width="48" height="48" fill="white" transform="translate(16.001 15.9961)"/>
</clipPath>
</defs>
</svg>
