<svg width="80" height="80" viewBox="0 0 80 80" fill="none" xmlns="http://www.w3.org/2000/svg">
<circle cx="40" cy="40" r="40" fill="#2A2A72"/>
<g clip-path="url(#clip0_439_27085)">
<path d="M48.001 27.9961V39.9961C48.001 42.1961 49.801 43.9961 52.001 43.9961H54.001V57.9961C54.001 59.0961 54.901 59.9961 56.001 59.9961C57.101 59.9961 58.001 59.0961 58.001 57.9961V22.2561C58.001 20.9561 56.781 19.9961 55.521 20.2961C51.201 21.3561 48.001 25.0161 48.001 27.9961ZM38.001 33.9961H34.001V21.9961C34.001 20.8961 33.101 19.9961 32.001 19.9961C30.901 19.9961 30.001 20.8961 30.001 21.9961V33.9961H26.001V21.9961C26.001 20.8961 25.101 19.9961 24.001 19.9961C22.901 19.9961 22.001 20.8961 22.001 21.9961V33.9961C22.001 38.4161 25.581 41.9961 30.001 41.9961V57.9961C30.001 59.0961 30.901 59.9961 32.001 59.9961C33.101 59.9961 34.001 59.0961 34.001 57.9961V41.9961C38.421 41.9961 42.001 38.4161 42.001 33.9961V21.9961C42.001 20.8961 41.101 19.9961 40.001 19.9961C38.901 19.9961 38.001 20.8961 38.001 21.9961V33.9961Z" fill="white"/>
</g>
<defs>
<clipPath id="clip0_439_27085">
<rect width="48" height="48" fill="white" transform="translate(16.001 15.9961)"/>
</clipPath>
</defs>
</svg>
