<svg width="80" height="80" viewBox="0 0 80 80" fill="none" xmlns="http://www.w3.org/2000/svg">
<circle cx="40" cy="40" r="40" fill="#C1292E"/>
<path d="M41.151 58.7961C40.351 59.5961 39.401 59.9961 38.301 59.9961C37.201 59.9961 36.251 59.5961 35.451 58.7961L21.151 44.4961C20.3843 43.7294 20.001 42.7878 20.001 41.6711C20.001 40.5544 20.3843 39.6128 21.151 38.8461L38.751 21.1961C39.1176 20.8294 39.551 20.5378 40.051 20.3211C40.551 20.1044 41.0843 19.9961 41.651 19.9961H55.951C57.051 19.9961 57.9926 20.3878 58.776 21.1711C59.5593 21.9544 59.951 22.8961 59.951 23.9961V38.2961C59.951 38.8628 59.8426 39.3961 59.626 39.8961C59.4093 40.3961 59.1176 40.8294 58.751 41.1961L41.151 58.7961ZM50.951 31.9961C51.7843 31.9961 52.4926 31.7044 53.076 31.1211C53.6593 30.5378 53.951 29.8294 53.951 28.9961C53.951 28.1628 53.6593 27.4544 53.076 26.8711C52.4926 26.2878 51.7843 25.9961 50.951 25.9961C50.1176 25.9961 49.4093 26.2878 48.826 26.8711C48.2426 27.4544 47.951 28.1628 47.951 28.9961C47.951 29.8294 48.2426 30.5378 48.826 31.1211C49.4093 31.7044 50.1176 31.9961 50.951 31.9961ZM38.301 55.9961L55.951 38.2961V23.9961H41.651L24.001 41.6961L38.301 55.9961Z" fill="white"/>
</svg>
