<svg width="80" height="80" viewBox="0 0 80 80" fill="none" xmlns="http://www.w3.org/2000/svg">
<circle cx="40" cy="40" r="40" fill="#C1292E"/>
<path d="M34.001 59.9961C32.901 59.9961 31.9593 59.6044 31.176 58.8211C30.3926 58.0378 30.001 57.0961 30.001 55.9961V49.9961H24.001C22.901 49.9961 21.9593 49.6044 21.176 48.8211C20.3926 48.0378 20.001 47.0961 20.001 45.9961V33.9961C20.001 32.8961 20.3926 31.9544 21.176 31.1711C21.9593 30.3878 22.901 29.9961 24.001 29.9961H30.001V23.9961C30.001 22.8961 30.3926 21.9544 31.176 21.1711C31.9593 20.3878 32.901 19.9961 34.001 19.9961H46.001C47.101 19.9961 48.0426 20.3878 48.826 21.1711C49.6093 21.9544 50.001 22.8961 50.001 23.9961V29.9961H56.001C57.101 29.9961 58.0426 30.3878 58.826 31.1711C59.6093 31.9544 60.001 32.8961 60.001 33.9961V45.9961C60.001 47.0961 59.6093 48.0378 58.826 48.8211C58.0426 49.6044 57.101 49.9961 56.001 49.9961H50.001V55.9961C50.001 57.0961 49.6093 58.0378 48.826 58.8211C48.0426 59.6044 47.101 59.9961 46.001 59.9961H34.001ZM24.001 37.9961H34.001C34.3343 37.9961 34.651 38.0794 34.951 38.2461C35.251 38.4128 35.4843 38.6294 35.651 38.8961L37.401 41.4961L40.101 33.3961C40.2343 32.9961 40.476 32.6628 40.826 32.3961C41.176 32.1294 41.5676 31.9961 42.001 31.9961C42.3343 31.9961 42.651 32.0794 42.951 32.2461C43.251 32.4128 43.4843 32.6294 43.651 32.8961L47.051 37.9961H56.001V33.9961H48.001C47.4343 33.9961 46.9593 33.8044 46.576 33.4211C46.1926 33.0378 46.001 32.5628 46.001 31.9961V23.9961H34.001V31.9961C34.001 32.5628 33.8093 33.0378 33.426 33.4211C33.0426 33.8044 32.5676 33.9961 32.001 33.9961H24.001V37.9961ZM24.001 41.9961V45.9961H32.001C32.5676 45.9961 33.0426 46.1878 33.426 46.5711C33.8093 46.9544 34.001 47.4294 34.001 47.9961V55.9961H46.001V47.9961C46.001 47.4294 46.1926 46.9544 46.576 46.5711C46.9593 46.1878 47.4343 45.9961 48.001 45.9961H56.001V41.9961H46.001C45.6676 41.9961 45.351 41.9128 45.051 41.7461C44.751 41.5794 44.501 41.3628 44.301 41.0961L42.601 38.4961L39.901 46.5961C39.7676 46.9961 39.5176 47.3294 39.151 47.5961C38.7843 47.8628 38.3843 47.9961 37.951 47.9961C37.6176 47.9961 37.301 47.9128 37.001 47.7461C36.701 47.5794 36.4676 47.3628 36.301 47.0961L32.901 41.9961H24.001ZM20.001 41.9961H24.001V45.9961H32.001C32.5676 45.9961 33.0426 46.1878 33.426 46.5711C33.8093 46.9544 34.001 47.4294 34.001 47.9961V55.9961H46.001V47.9961C46.001 47.4294 46.1926 46.9544 46.576 46.5711C46.9593 46.1878 47.4343 45.9961 48.001 45.9961H56.001V41.9961H60.001V37.9961H56.001V33.9961H48.001C47.4343 33.9961 46.9593 33.8044 46.576 33.4211C46.1926 33.0378 46.001 32.5628 46.001 31.9961V23.9961H34.001V31.9961C34.001 32.5628 33.8093 33.0378 33.426 33.4211C33.0426 33.8044 32.5676 33.9961 32.001 33.9961H24.001V37.9961H20.001V41.9961Z" fill="white"/>
</svg>
