<svg width="80" height="80" viewBox="0 0 80 80" fill="none" xmlns="http://www.w3.org/2000/svg">
<circle cx="40" cy="40" r="40" fill="#C200FB"/>
<path d="M24.001 55.9961V37.9961C22.901 37.9961 21.9593 37.6044 21.176 36.8211C20.3926 36.0378 20.001 35.0961 20.001 33.9961V29.9961C20.001 28.8961 20.3926 27.9544 21.176 27.1711C21.9593 26.3878 22.901 25.9961 24.001 25.9961H30.401C30.2343 25.6961 30.126 25.3794 30.076 25.0461C30.026 24.7128 30.001 24.3628 30.001 23.9961C30.001 22.3294 30.5843 20.9128 31.751 19.7461C32.9176 18.5794 34.3343 17.9961 36.001 17.9961C36.7676 17.9961 37.4843 18.1378 38.151 18.4211C38.8176 18.7044 39.4343 19.0961 40.001 19.5961C40.5676 19.0628 41.1843 18.6628 41.851 18.3961C42.5176 18.1294 43.2343 17.9961 44.001 17.9961C45.6676 17.9961 47.0843 18.5794 48.251 19.7461C49.4176 20.9128 50.001 22.3294 50.001 23.9961C50.001 24.3628 49.9676 24.7044 49.901 25.0211C49.8343 25.3378 49.7343 25.6628 49.601 25.9961H56.001C57.101 25.9961 58.0426 26.3878 58.826 27.1711C59.6093 27.9544 60.001 28.8961 60.001 29.9961V33.9961C60.001 35.0961 59.6093 36.0378 58.826 36.8211C58.0426 37.6044 57.101 37.9961 56.001 37.9961V55.9961C56.001 57.0961 55.6093 58.0378 54.826 58.8211C54.0426 59.6044 53.101 59.9961 52.001 59.9961H28.001C26.901 59.9961 25.9593 59.6044 25.176 58.8211C24.3926 58.0378 24.001 57.0961 24.001 55.9961ZM44.001 21.9961C43.4343 21.9961 42.9593 22.1878 42.576 22.5711C42.1926 22.9544 42.001 23.4294 42.001 23.9961C42.001 24.5628 42.1926 25.0378 42.576 25.4211C42.9593 25.8044 43.4343 25.9961 44.001 25.9961C44.5676 25.9961 45.0426 25.8044 45.426 25.4211C45.8093 25.0378 46.001 24.5628 46.001 23.9961C46.001 23.4294 45.8093 22.9544 45.426 22.5711C45.0426 22.1878 44.5676 21.9961 44.001 21.9961ZM34.001 23.9961C34.001 24.5628 34.1926 25.0378 34.576 25.4211C34.9593 25.8044 35.4343 25.9961 36.001 25.9961C36.5676 25.9961 37.0426 25.8044 37.426 25.4211C37.8093 25.0378 38.001 24.5628 38.001 23.9961C38.001 23.4294 37.8093 22.9544 37.426 22.5711C37.0426 22.1878 36.5676 21.9961 36.001 21.9961C35.4343 21.9961 34.9593 22.1878 34.576 22.5711C34.1926 22.9544 34.001 23.4294 34.001 23.9961ZM24.001 29.9961V33.9961H38.001V29.9961H24.001ZM38.001 55.9961V37.9961H28.001V55.9961H38.001ZM42.001 55.9961H52.001V37.9961H42.001V55.9961ZM56.001 33.9961V29.9961H42.001V33.9961H56.001Z" fill="white"/>
</svg>
