<svg width="80" height="80" viewBox="0 0 80 80" fill="none" xmlns="http://www.w3.org/2000/svg">
<circle cx="40" cy="40" r="40" fill="#775144"/>
<g clip-path="url(#clip0_439_26954)">
<path d="M57.1409 45.717L58.5809 44.277C59.3609 43.497 59.3609 42.237 58.5809 41.457L58.5409 41.417C57.7609 40.637 56.5009 40.637 55.7209 41.417L50.0009 47.137L32.8609 29.997L38.5809 24.277C39.3609 23.497 39.3609 22.237 38.5809 21.457L38.5409 21.417C37.7609 20.637 36.5009 20.637 35.7209 21.417L34.2809 22.857L32.8409 21.417C32.0609 20.637 30.7809 20.637 30.0009 21.417L27.1409 24.277L25.7009 22.837C24.9209 22.057 23.6209 22.057 22.8409 22.837C22.0609 23.617 22.0609 24.917 22.8409 25.697L24.2809 27.137L21.4209 29.997C20.6409 30.777 20.6409 32.037 21.4209 32.817L22.8609 34.257L21.4209 35.717C20.6409 36.497 20.6409 37.757 21.4209 38.537L21.4609 38.577C22.2409 39.357 23.5009 39.357 24.2809 38.577L30.0009 32.857L47.1409 49.997L41.4209 55.717C40.6409 56.497 40.6409 57.757 41.4209 58.537L41.4609 58.577C42.2409 59.357 43.5009 59.357 44.2809 58.577L45.7209 57.137L47.1609 58.577C47.9409 59.357 49.2009 59.357 49.9809 58.577L52.8409 55.717L54.2809 57.157C55.0609 57.937 56.3609 57.937 57.1409 57.157C57.9209 56.377 57.9209 55.077 57.1409 54.297L55.7009 52.857L58.5809 49.997C59.3609 49.217 59.3609 47.957 58.5809 47.177L57.1409 45.717Z" fill="white"/>
</g>
<defs>
<clipPath id="clip0_439_26954">
<rect width="48" height="48" fill="white" transform="translate(16.001 15.9961)"/>
</clipPath>
</defs>
</svg>
