<svg width="80" height="80" viewBox="0 0 80 80" fill="none" xmlns="http://www.w3.org/2000/svg">
<circle cx="40" cy="40" r="40" fill="#477641"/>
<g clip-path="url(#clip0_439_26969)">
<path d="M52.001 23.9961V21.9961C52.001 20.8961 51.101 19.9961 50.001 19.9961H26.001C24.901 19.9961 24.001 20.8961 24.001 21.9961V29.9961C24.001 31.0961 24.901 31.9961 26.001 31.9961H50.001C51.101 31.9961 52.001 31.0961 52.001 29.9961V27.9961H54.001V35.9961H36.001C34.901 35.9961 34.001 36.8961 34.001 37.9961V57.9961C34.001 59.0961 34.901 59.9961 36.001 59.9961H40.001C41.101 59.9961 42.001 59.0961 42.001 57.9961V39.9961H56.001C57.101 39.9961 58.001 39.0961 58.001 37.9961V25.9961C58.001 24.8961 57.101 23.9961 56.001 23.9961H52.001Z" fill="white"/>
</g>
<defs>
<clipPath id="clip0_439_26969">
<rect width="48" height="48" fill="white" transform="translate(16.001 15.9961)"/>
</clipPath>
</defs>
</svg>
