<svg width="80" height="80" viewBox="0 0 80 80" fill="none" xmlns="http://www.w3.org/2000/svg">
<circle cx="40" cy="40" r="40" fill="#FF006E"/>
<g clip-path="url(#clip0_439_27046)">
<path d="M25.001 39.9961C27.7624 39.9961 30.001 37.7575 30.001 34.9961C30.001 32.2347 27.7624 29.9961 25.001 29.9961C22.2396 29.9961 20.001 32.2347 20.001 34.9961C20.001 37.7575 22.2396 39.9961 25.001 39.9961Z" fill="white"/>
<path d="M34.001 31.9961C36.7624 31.9961 39.001 29.7575 39.001 26.9961C39.001 24.2347 36.7624 21.9961 34.001 21.9961C31.2396 21.9961 29.001 24.2347 29.001 26.9961C29.001 29.7575 31.2396 31.9961 34.001 31.9961Z" fill="white"/>
<path d="M46.001 31.9961C48.7624 31.9961 51.001 29.7575 51.001 26.9961C51.001 24.2347 48.7624 21.9961 46.001 21.9961C43.2396 21.9961 41.001 24.2347 41.001 26.9961C41.001 29.7575 43.2396 31.9961 46.001 31.9961Z" fill="white"/>
<path d="M55.001 39.9961C57.7624 39.9961 60.001 37.7575 60.001 34.9961C60.001 32.2347 57.7624 29.9961 55.001 29.9961C52.2396 29.9961 50.001 32.2347 50.001 34.9961C50.001 37.7575 52.2396 39.9961 55.001 39.9961Z" fill="white"/>
<path d="M50.6813 45.7161C48.9413 43.6761 47.4813 41.9361 45.7213 39.8961C44.8013 38.8161 43.6213 37.7361 42.2213 37.2561C42.0013 37.1761 41.7813 37.1161 41.5613 37.0761C41.0613 36.9961 40.5213 36.9961 40.0013 36.9961C39.4813 36.9961 38.9413 36.9961 38.4213 37.0961C38.2013 37.1361 37.9813 37.1961 37.7613 37.2761C36.3613 37.7561 35.2013 38.8361 34.2613 39.9161C32.5213 41.9561 31.0613 43.6961 29.3013 45.7361C26.6813 48.3561 23.4613 51.2561 24.0613 55.3161C24.6413 57.3561 26.1013 59.3761 28.7213 59.9561C30.1813 60.2561 34.8413 59.0761 39.8013 59.0761H40.1613C45.1213 59.0761 49.7813 60.2361 51.2413 59.9561C53.8613 59.3761 55.3213 57.3361 55.9013 55.3161C56.5213 51.2361 53.3013 48.3361 50.6813 45.7161Z" fill="white"/>
</g>
<defs>
<clipPath id="clip0_439_27046">
<rect width="48" height="48" fill="white" transform="translate(16.001 15.9961)"/>
</clipPath>
</defs>
</svg>
