<svg width="80" height="80" viewBox="0 0 80 80" fill="none" xmlns="http://www.w3.org/2000/svg">
<circle cx="40" cy="40" r="40" fill="#8338EC"/>
<g clip-path="url(#clip0_439_27116)">
<path d="M28.503 56.9961C27.4029 56.9961 26.4614 56.6048 25.6786 55.8221C24.8944 55.0381 24.5024 54.0961 24.5024 52.9961C24.5024 51.8961 24.8944 50.9541 25.6786 50.1701C26.4614 49.3874 27.4029 48.9961 28.503 48.9961C29.6032 48.9961 30.5447 49.3874 31.3275 50.1701C32.1117 50.9541 32.5037 51.8961 32.5037 52.9961C32.5037 54.0961 32.1117 55.0381 31.3275 55.8221C30.5447 56.6048 29.6032 56.9961 28.503 56.9961ZM48.5065 56.9961C47.4063 56.9961 46.4648 56.6048 45.682 55.8221C44.8979 55.0381 44.5058 54.0961 44.5058 52.9961C44.5058 51.8961 44.8979 50.9541 45.682 50.1701C46.4648 49.3874 47.4063 48.9961 48.5065 48.9961C49.6067 48.9961 50.5489 49.3874 51.333 50.1701C52.1158 50.9541 52.5072 51.8961 52.5072 52.9961C52.5072 54.0961 52.1158 55.0381 51.333 55.8221C50.5489 56.6048 49.6067 56.9961 48.5065 56.9961ZM26.8028 24.9961L31.6036 34.9961H45.606L51.1069 24.9961H26.8028ZM28.503 46.9961C27.0028 46.9961 25.8693 46.3374 25.1025 45.0201C24.3357 43.7041 24.3023 42.3961 25.0024 41.0961L27.7029 36.1961L20.5017 20.9961H18.4513C17.8845 20.9961 17.4178 20.8041 17.0511 20.4201C16.6843 20.0374 16.501 19.5628 16.501 18.9961C16.501 18.4294 16.693 17.9541 17.0771 17.5701C17.4598 17.1874 17.9346 16.9961 18.5013 16.9961H21.7519C22.1186 16.9961 22.4687 17.0961 22.8021 17.2961C23.1355 17.4961 23.3855 17.7794 23.5522 18.1461L24.9024 20.9961H54.4075C55.3077 20.9961 55.9244 21.3294 56.2578 21.9961C56.5912 22.6628 56.5746 23.3628 56.2078 24.0961L49.1066 36.8961C48.7399 37.5628 48.2565 38.0794 47.6564 38.4461C47.0563 38.8128 46.3728 38.9961 45.606 38.9961H30.7034L28.503 42.9961H50.5569C51.1236 42.9961 51.5904 43.1874 51.9571 43.5701C52.3238 43.9541 52.5072 44.4294 52.5072 44.9961C52.5072 45.5628 52.3152 46.0374 51.9311 46.4201C51.5484 46.8041 51.0736 46.9961 50.5068 46.9961H28.503Z" fill="white"/>
</g>
<defs>
<clipPath id="clip0_439_27116">
<rect width="48" height="48" fill="white" transform="translate(16.001 15.9961)"/>
</clipPath>
</defs>
</svg>
