<svg width="96" height="96" viewBox="0 0 96 96" fill="none" xmlns="http://www.w3.org/2000/svg">
<g clip-path="url(#clip0_105_10320)">
<path d="M73.1999 22.8409C71.6399 21.2809 69.1199 21.2809 67.5599 22.8409L47.9999 42.3609L28.4399 22.8009C26.8799 21.2409 24.3599 21.2409 22.7999 22.8009C21.2399 24.3609 21.2399 26.8809 22.7999 28.4409L42.3599 48.0009L22.7999 67.5609C21.2399 69.1209 21.2399 71.6409 22.7999 73.2009C24.3599 74.7609 26.8799 74.7609 28.4399 73.2009L47.9999 53.6409L67.5599 73.2009C69.1199 74.7609 71.6399 74.7609 73.1999 73.2009C74.7599 71.6409 74.7599 69.1209 73.1999 67.5609L53.6399 48.0009L73.1999 28.4409C74.7199 26.9209 74.7199 24.3609 73.1999 22.8409Z" fill="black"/>
</g>
<defs>
<clipPath id="clip0_105_10320">
<rect width="96" height="96" fill="white"/>
</clipPath>
</defs>
</svg>
