<svg width="96" height="96" viewBox="0 0 96 96" fill="none" xmlns="http://www.w3.org/2000/svg">
<g clip-path="url(#clip0_105_10328)">
<path d="M75.68 20.04C74.88 17.68 72.64 16 70 16H26C23.36 16 21.16 17.68 20.32 20.04L12.44 42.72C12.16 43.56 12 44.44 12 45.36V74C12 77.32 14.68 80 18 80C21.32 80 24 77.32 24 74V72H72V74C72 77.28 74.68 80 78 80C81.28 80 84 77.32 84 74V45.36C84 44.48 83.84 43.56 83.56 42.72L75.68 20.04ZM26 60C22.68 60 20 57.32 20 54C20 50.68 22.68 48 26 48C29.32 48 32 50.68 32 54C32 57.32 29.32 60 26 60ZM70 60C66.68 60 64 57.32 64 54C64 50.68 66.68 48 70 48C73.32 48 76 50.68 76 54C76 57.32 73.32 60 70 60ZM20 40L25.08 24.72C25.64 23.12 27.16 22 28.88 22H67.12C68.84 22 70.36 23.12 70.92 24.72L76 40H20Z" fill="black"/>
</g>
<defs>
<clipPath id="clip0_105_10328">
<rect width="96" height="96" fill="white"/>
</clipPath>
</defs>
</svg>
