<svg width="96" height="96" viewBox="0 0 96 96" fill="none" xmlns="http://www.w3.org/2000/svg">
<g clip-path="url(#clip0_105_10338)">
<path d="M87.6 20H72V8C72 5.8 70.2 4 68 4C65.8 4 64 5.8 64 8V20H48.4C46.04 20 44.2 22.04 44.4 24.4L44.88 29.24C59.6 32.64 72 43.08 72 60L72.08 92H78.88C82.24 92 85 89.4 85.4 86.12L91.56 24.4C91.8 22.04 89.96 20 87.6 20ZM60 84H8C5.8 84 4 85.8 4 88C4 90.2 5.8 92 8 92H60C62.2 92 64 90.2 64 88C64 85.8 62.2 84 60 84ZM8.4 60H59.6C62.08 60 64.04 57.76 63.56 55.36C60.96 42.44 47.48 35.96 34 35.96C20.52 35.96 7.08 42.44 4.44 55.36C3.96 57.76 5.96 60 8.4 60ZM60 68H8C5.8 68 4 69.8 4 72C4 74.2 5.8 76 8 76H60C62.2 76 64 74.2 64 72C64 69.8 62.2 68 60 68Z" fill="black"/>
</g>
<defs>
<clipPath id="clip0_105_10338">
<rect width="96" height="96" fill="white"/>
</clipPath>
</defs>
</svg>
