<svg width="96" height="96" viewBox="0 0 96 96" fill="none" xmlns="http://www.w3.org/2000/svg">
<g clip-path="url(#clip0_105_10327)">
<path d="M82.2799 59.4399L85.1599 56.5599C86.7199 54.9999 86.7199 52.4799 85.1599 50.9199L85.0799 50.8399C83.5199 49.2799 80.9999 49.2799 79.4399 50.8399L67.9999 62.2799L33.7199 27.9999L45.1599 16.5599C46.7199 14.9999 46.7199 12.4799 45.1599 10.9199L45.0799 10.8399C43.5199 9.27992 40.9999 9.27992 39.4399 10.8399L36.5599 13.7199L33.6799 10.8399C32.1199 9.27992 29.5599 9.27992 27.9999 10.8399L22.2799 16.5599L19.3999 13.6799C17.8399 12.1199 15.2399 12.1199 13.6799 13.6799C12.1199 15.2399 12.1199 17.8399 13.6799 19.3999L16.5599 22.2799L10.8399 27.9999C9.27992 29.5599 9.27992 32.0799 10.8399 33.6399L13.7199 36.5199L10.8399 39.4399C9.27992 40.9999 9.27992 43.5199 10.8399 45.0799L10.9199 45.1599C12.4799 46.7199 14.9999 46.7199 16.5599 45.1599L27.9999 33.7199L62.2799 67.9999L50.8399 79.4399C49.2799 80.9999 49.2799 83.5199 50.8399 85.0799L50.9199 85.1599C52.4799 86.7199 54.9999 86.7199 56.5599 85.1599L59.4399 82.2799L62.3199 85.1599C63.8799 86.7199 66.3999 86.7199 67.9599 85.1599L73.6799 79.4399L76.5599 82.3199C78.1199 83.8799 80.7199 83.8799 82.2799 82.3199C83.8399 80.7599 83.8399 78.1599 82.2799 76.5999L79.3999 73.7199L85.1599 67.9999C86.7199 66.4399 86.7199 63.9199 85.1599 62.3599L82.2799 59.4399Z" fill="black"/>
</g>
<defs>
<clipPath id="clip0_105_10327">
<rect width="96" height="96" fill="white"/>
</clipPath>
</defs>
</svg>
