<svg width="96" height="96" viewBox="0 0 96 96" fill="none" xmlns="http://www.w3.org/2000/svg">
<g clip-path="url(#clip0_105_10330)">
<path d="M72 16V12C72 9.8 70.2 8 68 8H20C17.8 8 16 9.8 16 12V28C16 30.2 17.8 32 20 32H68C70.2 32 72 30.2 72 28V24H76V40H40C37.8 40 36 41.8 36 44V84C36 86.2 37.8 88 40 88H48C50.2 88 52 86.2 52 84V48H80C82.2 48 84 46.2 84 44V20C84 17.8 82.2 16 80 16H72Z" fill="black"/>
</g>
<defs>
<clipPath id="clip0_105_10330">
<rect width="96" height="96" fill="white"/>
</clipPath>
</defs>
</svg>
