<svg width="96" height="96" viewBox="0 0 96 96" fill="none" xmlns="http://www.w3.org/2000/svg">
<path d="M16 80V44C13.8 44 11.9167 43.2167 10.35 41.65C8.78333 40.0833 8 38.2 8 36V28C8 25.8 8.78333 23.9167 10.35 22.35C11.9167 20.7833 13.8 20 16 20H28.8C28.4667 19.4 28.25 18.7667 28.15 18.1C28.05 17.4333 28 16.7333 28 16C28 12.6667 29.1667 9.83333 31.5 7.5C33.8333 5.16667 36.6667 4 40 4C41.5333 4 42.9667 4.28333 44.3 4.85C45.6333 5.41667 46.8667 6.2 48 7.2C49.1333 6.13333 50.3667 5.33333 51.7 4.8C53.0333 4.26667 54.4667 4 56 4C59.3333 4 62.1667 5.16667 64.5 7.5C66.8333 9.83333 68 12.6667 68 16C68 16.7333 67.9333 17.4167 67.8 18.05C67.6667 18.6833 67.4667 19.3333 67.2 20H80C82.2 20 84.0833 20.7833 85.65 22.35C87.2167 23.9167 88 25.8 88 28V36C88 38.2 87.2167 40.0833 85.65 41.65C84.0833 43.2167 82.2 44 80 44V80C80 82.2 79.2167 84.0833 77.65 85.65C76.0833 87.2167 74.2 88 72 88H24C21.8 88 19.9167 87.2167 18.35 85.65C16.7833 84.0833 16 82.2 16 80ZM56 12C54.8667 12 53.9167 12.3833 53.15 13.15C52.3833 13.9167 52 14.8667 52 16C52 17.1333 52.3833 18.0833 53.15 18.85C53.9167 19.6167 54.8667 20 56 20C57.1333 20 58.0833 19.6167 58.85 18.85C59.6167 18.0833 60 17.1333 60 16C60 14.8667 59.6167 13.9167 58.85 13.15C58.0833 12.3833 57.1333 12 56 12ZM36 16C36 17.1333 36.3833 18.0833 37.15 18.85C37.9167 19.6167 38.8667 20 40 20C41.1333 20 42.0833 19.6167 42.85 18.85C43.6167 18.0833 44 17.1333 44 16C44 14.8667 43.6167 13.9167 42.85 13.15C42.0833 12.3833 41.1333 12 40 12C38.8667 12 37.9167 12.3833 37.15 13.15C36.3833 13.9167 36 14.8667 36 16ZM16 28V36H44V28H16ZM44 80V44H24V80H44ZM52 80H72V44H52V80ZM80 36V28H52V36H80Z" fill="black"/>
</svg>
