<svg width="96" height="96" viewBox="0 0 96 96" fill="none" xmlns="http://www.w3.org/2000/svg">
<path d="M36 88C33.8 88 31.9167 87.2167 30.35 85.65C28.7833 84.0833 28 82.2 28 80V68H16C13.8 68 11.9167 67.2167 10.35 65.65C8.78333 64.0833 8 62.2 8 60V36C8 33.8 8.78333 31.9167 10.35 30.35C11.9167 28.7833 13.8 28 16 28H28V16C28 13.8 28.7833 11.9167 30.35 10.35C31.9167 8.78333 33.8 8 36 8H60C62.2 8 64.0833 8.78333 65.65 10.35C67.2167 11.9167 68 13.8 68 16V28H80C82.2 28 84.0833 28.7833 85.65 30.35C87.2167 31.9167 88 33.8 88 36V60C88 62.2 87.2167 64.0833 85.65 65.65C84.0833 67.2167 82.2 68 80 68H68V80C68 82.2 67.2167 84.0833 65.65 85.65C64.0833 87.2167 62.2 88 60 88H36ZM16 44H36C36.6667 44 37.3 44.1667 37.9 44.5C38.5 44.8333 38.9667 45.2667 39.3 45.8L42.8 51L48.2 34.8C48.4667 34 48.95 33.3333 49.65 32.8C50.35 32.2667 51.1333 32 52 32C52.6667 32 53.3 32.1667 53.9 32.5C54.5 32.8333 54.9667 33.2667 55.3 33.8L62.1 44H80V36H64C62.8667 36 61.9167 35.6167 61.15 34.85C60.3833 34.0833 60 33.1333 60 32V16H36V32C36 33.1333 35.6167 34.0833 34.85 34.85C34.0833 35.6167 33.1333 36 32 36H16V44ZM16 52V60H32C33.1333 60 34.0833 60.3833 34.85 61.15C35.6167 61.9167 36 62.8667 36 64V80H60V64C60 62.8667 60.3833 61.9167 61.15 61.15C61.9167 60.3833 62.8667 60 64 60H80V52H60C59.3333 52 58.7 51.8333 58.1 51.5C57.5 51.1667 57 50.7333 56.6 50.2L53.2 45L47.8 61.2C47.5333 62 47.0333 62.6667 46.3 63.2C45.5667 63.7333 44.7667 64 43.9 64C43.2333 64 42.6 63.8333 42 63.5C41.4 63.1667 40.9333 62.7333 40.6 62.2L33.8 52H16ZM8 52H16V60H32C33.1333 60 34.0833 60.3833 34.85 61.15C35.6167 61.9167 36 62.8667 36 64V80H60V64C60 62.8667 60.3833 61.9167 61.15 61.15C61.9167 60.3833 62.8667 60 64 60H80V52H88V44H80V36H64C62.8667 36 61.9167 35.6167 61.15 34.85C60.3833 34.0833 60 33.1333 60 32V16H36V32C36 33.1333 35.6167 34.0833 34.85 34.85C34.0833 35.6167 33.1333 36 32 36H16V44H8V52Z" fill="black"/>
</svg>
