<svg width="96" height="96" viewBox="0 0 96 96" fill="none" xmlns="http://www.w3.org/2000/svg">
<g clip-path="url(#clip0_105_10340)">
<path d="M76.0004 37.2009V20.0009C76.0004 17.8009 74.2004 16.0009 72.0004 16.0009H68.0004C65.8004 16.0009 64.0004 17.8009 64.0004 20.0009V26.4009L50.6804 14.4009C49.1604 13.0409 46.8404 13.0409 45.3204 14.4009L11.8804 44.5209C10.5204 45.7209 11.3604 48.0009 13.2004 48.0009H20.0004V76.0009C20.0004 78.2009 21.8004 80.0009 24.0004 80.0009H36.0004C38.2004 80.0009 40.0004 78.2009 40.0004 76.0009V56.0009H56.0004V76.0009C56.0004 78.2009 57.8004 80.0009 60.0004 80.0009H72.0004C74.2004 80.0009 76.0004 78.2009 76.0004 76.0009V48.0009H82.8004C84.6404 48.0009 85.5204 45.7209 84.1204 44.5209L76.0004 37.2009ZM40.0004 40.0009C40.0004 35.6009 43.6004 32.0009 48.0004 32.0009C52.4004 32.0009 56.0004 35.6009 56.0004 40.0009H40.0004Z" fill="black"/>
</g>
<defs>
<clipPath id="clip0_105_10340">
<rect width="96" height="96" fill="white"/>
</clipPath>
</defs>
</svg>
