<svg width="96" height="96" viewBox="0 0 96 96" fill="none" xmlns="http://www.w3.org/2000/svg">
<g clip-path="url(#clip0_105_10329)">
<path d="M79.08 28.92L79.12 28.88L66.36 16.12C65.2 14.96 63.28 14.96 62.12 16.12C60.96 17.28 60.96 19.2 62.12 20.36L68.44 26.68C64.24 28.28 61.4 32.56 62.12 37.52C62.76 41.92 66.52 45.48 70.92 45.96C72.8 46.16 74.44 45.84 76 45.16V74C76 76.2 74.2 78 72 78C69.8 78 68 76.2 68 74V56C68 51.6 64.4 48 60 48H56V20C56 15.6 52.4 12 48 12H24C19.6 12 16 15.6 16 20V80C16 82.2 17.8 84 20 84H52C54.2 84 56 82.2 56 80V54H62V73.44C62 78.68 65.76 83.44 70.96 83.96C76.96 84.56 82 79.88 82 74V36C82 33.24 80.88 30.72 79.08 28.92ZM48 40H24V24C24 21.8 25.8 20 28 20H44C46.2 20 48 21.8 48 24V40ZM72 40C69.8 40 68 38.2 68 36C68 33.8 69.8 32 72 32C74.2 32 76 33.8 76 36C76 38.2 74.2 40 72 40Z" fill="black"/>
</g>
<defs>
<clipPath id="clip0_105_10329">
<rect width="96" height="96" fill="white"/>
</clipPath>
</defs>
</svg>
