<svg width="96" height="96" viewBox="0 0 96 96" fill="none" xmlns="http://www.w3.org/2000/svg">
<g clip-path="url(#clip0_105_10345)">
<path d="M64 24V48C64 52.4 67.6 56 72 56H76V84C76 86.2 77.8 88 80 88C82.2 88 84 86.2 84 84V12.52C84 9.92 81.56 8 79.04 8.6C70.4 10.72 64 18.04 64 24ZM44 36H36V12C36 9.8 34.2 8 32 8C29.8 8 28 9.8 28 12V36H20V12C20 9.8 18.2 8 16 8C13.8 8 12 9.8 12 12V36C12 44.84 19.16 52 28 52V84C28 86.2 29.8 88 32 88C34.2 88 36 86.2 36 84V52C44.84 52 52 44.84 52 36V12C52 9.8 50.2 8 48 8C45.8 8 44 9.8 44 12V36Z" fill="black"/>
</g>
<defs>
<clipPath id="clip0_105_10345">
<rect width="96" height="96" fill="white"/>
</clipPath>
</defs>
</svg>
