<svg width="96" height="96" viewBox="0 0 96 96" fill="none" xmlns="http://www.w3.org/2000/svg">
<g clip-path="url(#clip0_105_10343)">
<path d="M79.32 30.0006L70.24 20.9206C70.52 19.2406 70.96 17.6806 71.52 16.3206C71.96 15.2806 72.12 14.0806 71.88 12.8406C71.36 9.96059 68.56 7.96059 65.6 8.00059C59.24 8.12059 53.6 11.2406 50 16.0006H30C17.84 16.0006 8 25.8406 8 38.0006C8 47.0006 13.48 67.9206 16.32 78.1606C17.28 81.6006 20.44 84.0006 24.04 84.0006H32C36.4 84.0006 40 80.4006 40 76.0006H48C48 80.4006 51.6 84.0006 56 84.0006H64.04C67.56 84.0006 70.68 81.6806 71.72 78.2806L76.72 61.6406L85.28 58.7606C86.92 58.2006 88 56.6806 88 54.9606V34.0006C88 31.8006 86.2 30.0006 84 30.0006H79.32ZM48 36.0006H36C33.8 36.0006 32 34.2006 32 32.0006C32 29.8006 33.8 28.0006 36 28.0006H48C50.2 28.0006 52 29.8006 52 32.0006C52 34.2006 50.2 36.0006 48 36.0006ZM64 44.0006C61.8 44.0006 60 42.2006 60 40.0006C60 37.8006 61.8 36.0006 64 36.0006C66.2 36.0006 68 37.8006 68 40.0006C68 42.2006 66.2 44.0006 64 44.0006Z" fill="black"/>
</g>
<defs>
<clipPath id="clip0_105_10343">
<rect width="96" height="96" fill="white"/>
</clipPath>
</defs>
</svg>
