<svg width="96" height="96" viewBox="0 0 96 96" fill="none" xmlns="http://www.w3.org/2000/svg">
<path d="M50.3 85.6C48.7 87.2 46.8 88 44.6 88C42.4 88 40.5 87.2 38.9 85.6L10.3 57C8.76667 55.4667 8 53.5833 8 51.35C8 49.1167 8.76667 47.2333 10.3 45.7L45.5 10.4C46.2333 9.66667 47.1 9.08333 48.1 8.65C49.1 8.21667 50.1667 8 51.3 8H79.9C82.1 8 83.9833 8.78333 85.55 10.35C87.1167 11.9167 87.9 13.8 87.9 16V44.6C87.9 45.7333 87.6833 46.8 87.25 47.8C86.8167 48.8 86.2333 49.6667 85.5 50.4L50.3 85.6ZM69.9 32C71.5667 32 72.9833 31.4167 74.15 30.25C75.3167 29.0833 75.9 27.6667 75.9 26C75.9 24.3333 75.3167 22.9167 74.15 21.75C72.9833 20.5833 71.5667 20 69.9 20C68.2333 20 66.8167 20.5833 65.65 21.75C64.4833 22.9167 63.9 24.3333 63.9 26C63.9 27.6667 64.4833 29.0833 65.65 30.25C66.8167 31.4167 68.2333 32 69.9 32ZM44.6 80L79.9 44.6V16H51.3L16 51.4L44.6 80Z" fill="black"/>
</svg>
