<svg width="96" height="96" viewBox="0 0 96 96" fill="none" xmlns="http://www.w3.org/2000/svg">
<path d="M25.0041 82C22.8038 82 20.9208 81.2173 19.3552 79.652C17.7869 78.084 17.0028 76.2 17.0028 74C17.0028 71.8 17.7869 69.916 19.3552 68.348C20.9208 66.7827 22.8038 66 25.0041 66C27.2045 66 29.0875 66.7827 30.6531 68.348C32.2214 69.916 33.0055 71.8 33.0055 74C33.0055 76.2 32.2214 78.084 30.6531 79.652C29.0875 81.2173 27.2045 82 25.0041 82ZM65.011 82C62.8107 82 60.9277 81.2173 59.3621 79.652C57.7938 78.084 57.0097 76.2 57.0097 74C57.0097 71.8 57.7938 69.916 59.3621 68.348C60.9277 66.7827 62.8107 66 65.011 66C67.2114 66 69.0958 66.7827 70.664 68.348C72.2296 69.916 73.0124 71.8 73.0124 74C73.0124 76.2 72.2296 78.084 70.664 79.652C69.0958 81.2173 67.2114 82 65.011 82ZM21.6036 18L31.2052 38H59.21L70.2119 18H21.6036ZM25.0041 62C22.0036 62 19.7366 60.6827 18.203 58.048C16.6694 55.416 16.6027 52.8 18.0029 50.2L23.4039 40.4L9.00138 10H4.90067C3.76714 10 2.83365 9.616 2.10019 8.848C1.36673 8.08267 1 7.13333 1 6C1 4.86667 1.38407 3.916 2.1522 3.148C2.91766 2.38267 3.86716 2 5.00069 2H11.5018C12.2353 2 12.9354 2.2 13.6022 2.6C14.269 3 14.769 3.56667 15.1024 4.3L17.8029 10H76.8131C78.6134 10 79.8469 10.6667 80.5137 12C81.1805 13.3333 81.1472 14.7333 80.4137 16.2L66.2113 41.8C65.4778 43.1333 64.511 44.1667 63.3108 44.9C62.1105 45.6333 60.7436 46 59.21 46H29.4049L25.0041 54H69.1118C70.2453 54 71.1788 54.3827 71.9122 55.148C72.6457 55.916 73.0124 56.8667 73.0124 58C73.0124 59.1333 72.6284 60.0827 71.8602 60.848C71.0948 61.616 70.1453 62 69.0117 62H25.0041Z" fill="black"/>
</svg>
