<svg width="96" height="96" viewBox="0 0 96 96" fill="none" xmlns="http://www.w3.org/2000/svg">
<path d="M27.4003 68.6008L17.4003 63.1008C16.667 62.7008 16.2503 62.1174 16.1503 61.3508C16.0503 60.5841 16.267 59.9341 16.8003 59.4008L18.0003 58.2008C18.267 57.9341 18.5837 57.7508 18.9503 57.6508C19.317 57.5508 19.667 57.5341 20.0003 57.6008L28.8003 58.8008L44.4003 43.2008L17.2003 28.4008C16.2003 27.8674 15.617 27.0341 15.4503 25.9008C15.2837 24.7674 15.6003 23.8008 16.4003 23.0008L17.4003 22.0008C17.867 21.5341 18.3837 21.2341 18.9503 21.1008C19.517 20.9674 20.1003 20.9674 20.7003 21.1008L57.0003 30.4008L72.6003 15.0008C73.7337 13.8674 75.1337 13.3008 76.8003 13.3008C78.467 13.3008 79.867 13.8674 81.0003 15.0008C82.1337 16.1341 82.7003 17.5341 82.7003 19.2008C82.7003 20.8674 82.1337 22.2674 81.0003 23.4008L65.6003 39.0008L74.9003 75.1008C75.0337 75.7674 75.017 76.4174 74.8503 77.0508C74.6837 77.6841 74.367 78.2341 73.9003 78.7008L73.4003 79.2008C72.467 80.1341 71.3837 80.5008 70.1503 80.3008C68.917 80.1008 68.0003 79.4341 67.4003 78.3008L52.8003 51.6008L37.2003 67.2008L38.4003 75.8008C38.467 76.2674 38.4337 76.7008 38.3003 77.1008C38.167 77.5008 37.9337 77.8674 37.6003 78.2008L37.1003 78.7008C36.4337 79.3674 35.6337 79.6508 34.7003 79.5508C33.767 79.4508 33.067 78.9674 32.6003 78.1008L27.4003 68.6008Z" fill="black"/>
</svg>
